<?xml version="1.0" standalone="no"?>
<!DOCTYPE svg PUBLIC "-//W3C//DTD SVG 20010904//EN"
 "http://www.w3.org/TR/2001/REC-SVG-20010904/DTD/svg10.dtd">
<svg version="1.0" xmlns="http://www.w3.org/2000/svg"
 width="902.000000pt" height="902.000000pt" viewBox="0 0 902.000000 902.000000"
 preserveAspectRatio="xMidYMid meet">

<g transform="translate(0.000000,902.000000) scale(0.100000,-0.100000)"
fill="#000000" stroke="none">
<path d="M4344 6650 c-249 -26 -502 -115 -699 -246 -255 -169 -441 -375 -569
-631 l-46 -93 -1265 0 c-696 0 -1265 -3 -1265 -6 0 -3 61 -82 135 -175 l135
-169 1074 0 c591 0 1077 -3 1079 -7 3 -5 2 -26 -2 -48 l-6 -40 -763 -5 -762
-5 137 -172 138 -172 623 -1 c489 0 623 -3 626 -12 3 -7 7 -30 10 -50 l5 -38
-320 0 c-175 0 -319 -2 -319 -5 0 -3 61 -82 136 -175 l136 -170 233 0 234 0
61 -119 c221 -427 620 -727 1110 -833 90 -19 135 -22 310 -22 175 0 220 3 310
22 490 106 889 406 1110 833 l61 119 234 0 233 0 136 170 c75 93 136 172 136
175 0 3 -144 5 -319 5 l-320 0 5 38 c3 20 7 43 10 50 3 9 137 12 626 12 l623
1 138 172 137 172 -762 5 -763 5 -6 40 c-4 22 -5 43 -2 48 2 4 488 7 1078 7
l1075 0 135 169 c74 92 135 171 135 175 0 3 -569 6 -1265 6 l-1265 0 -46 93
c-128 256 -314 462 -569 631 -290 192 -673 284 -1031 246z m425 -370 c478 -97
865 -484 966 -965 46 -222 31 -463 -45 -680 -133 -386 -469 -693 -869 -795
-372 -95 -774 -11 -1080 224 -130 100 -281 285 -356 436 -118 236 -156 545
-100 815 87 417 389 765 796 918 201 76 461 93 688 47z"/>
<path d="M4270 5040 l0 -380 35 0 35 0 0 337 c0 192 4 333 9 328 4 -6 30 -99
57 -207 l48 -198 42 0 42 0 20 78 c12 42 36 136 54 207 l33 130 3 -337 2 -338
40 0 40 0 0 380 0 380 -69 0 c-58 0 -71 -3 -75 -17 -3 -10 -22 -96 -42 -190
-21 -95 -41 -173 -44 -173 -4 0 -21 69 -39 153 -18 83 -37 169 -42 190 l-10
37 -69 0 -70 0 0 -380z"/>
<path d="M2530 2650 l0 -250 25 0 25 0 2 223 3 222 35 -137 c34 -135 35 -138
62 -138 30 0 28 -5 68 163 13 53 28 97 32 97 4 0 8 -97 8 -215 0 -208 1 -215
20 -215 19 0 20 7 20 250 l0 250 -43 0 -43 0 -23 -112 c-13 -62 -27 -119 -31
-127 -9 -18 -11 -12 -41 127 l-23 112 -48 0 -48 0 0 -250z"/>
<path d="M4960 2650 c0 -243 1 -250 20 -250 19 0 20 7 20 222 0 122 3 219 6
215 3 -3 20 -63 38 -134 32 -127 33 -128 61 -128 28 0 29 1 61 128 18 71 35
131 38 134 3 4 6 -93 6 -215 l0 -222 25 0 25 0 0 250 0 250 -45 0 c-50 0 -46
8 -80 -155 -10 -44 -21 -84 -25 -88 -3 -4 -12 18 -19 50 -7 32 -20 88 -28 126
l-15 67 -44 0 -44 0 0 -250z"/>
<path d="M5780 2875 c0 -23 3 -25 49 -25 l50 0 3 -211 c4 -247 0 -239 110
-239 66 0 68 1 68 25 0 22 -4 24 -57 27 l-58 3 -3 223 -2 222 -80 0 c-79 0
-80 0 -80 -25z"/>
<path d="M6180 2875 c0 -23 3 -25 50 -25 l50 0 0 -196 c0 -190 5 -227 34 -246
6 -4 41 -8 79 -8 65 0 67 1 67 25 0 22 -4 24 -57 27 l-58 3 -3 223 -2 222 -80
0 c-79 0 -80 0 -80 -25z"/>
<path d="M3850 2800 c0 -39 -1 -40 -35 -40 -31 0 -35 -3 -35 -25 0 -22 4 -25
34 -25 l34 0 4 -136 c3 -129 4 -137 27 -155 16 -13 39 -19 77 -19 51 0 54 1
54 25 0 23 -4 25 -45 25 -60 0 -66 15 -63 147 l3 108 53 3 c48 3 52 5 52 28 0
23 -3 24 -55 24 l-55 0 0 40 c0 36 -2 40 -25 40 -22 0 -25 -4 -25 -40z"/>
<path d="M3013 2745 c-41 -18 -48 -42 -48 -177 0 -104 1 -108 28 -135 24 -25
36 -28 107 -31 l80 -4 0 26 c0 25 -2 26 -61 26 -84 0 -99 10 -99 65 l0 45 95
0 95 0 0 55 c0 71 -21 122 -55 135 -37 14 -104 12 -142 -5z m131 -57 c9 -12
16 -35 16 -50 0 -28 0 -28 -70 -28 l-70 0 0 38 c0 49 14 62 66 62 33 0 47 -5
58 -22z"/>
<path d="M3360 2578 l0 -178 30 0 30 0 0 145 c0 161 2 165 72 165 67 0 73 -12
76 -169 l4 -141 24 0 24 0 0 135 c0 208 -14 225 -177 223 l-83 -1 0 -179z"/>
<path d="M4223 2746 c-17 -8 -36 -23 -42 -35 -6 -11 -11 -72 -11 -136 0 -109
1 -117 24 -140 46 -46 159 -46 205 -1 25 26 26 31 26 146 0 117 -1 120 -27
147 -22 22 -38 27 -85 30 -36 2 -70 -2 -90 -11z m128 -46 c17 -10 19 -22 19
-120 0 -123 -4 -130 -76 -130 -63 0 -74 19 -74 128 0 113 11 132 72 132 22 0
48 -5 59 -10z"/>
<path d="M4590 2736 c0 -18 6 -25 23 -28 21 -3 22 -6 22 -128 0 -122 -1 -125
-22 -128 -17 -3 -23 -10 -23 -28 0 -24 1 -24 90 -24 89 0 90 0 90 25 0 23 -4
25 -40 25 l-40 0 0 113 c0 134 7 147 83 147 43 0 47 2 47 25 0 23 -4 25 -46
25 -25 0 -54 -5 -65 -10 -13 -7 -19 -7 -19 0 0 5 -22 10 -50 10 -46 0 -50 -2
-50 -24z"/>
<path d="M5400 2736 c0 -25 2 -26 61 -26 79 0 99 -11 99 -55 l0 -35 -66 0
c-60 0 -68 -3 -96 -30 -28 -29 -30 -35 -26 -91 3 -38 10 -66 21 -76 21 -22
135 -30 167 -13 16 9 25 9 33 1 6 -6 21 -11 34 -11 18 0 23 6 23 24 0 13 -6
26 -14 29 -10 4 -15 35 -17 126 -4 116 -5 122 -32 148 -24 25 -36 28 -107 31
l-80 4 0 -26z m158 -223 l-3 -58 -55 -3 c-60 -4 -80 11 -80 56 0 50 16 62 81
62 l60 0 -3 -57z"/>
</g>
</svg>
